#
#     Copyright (c) 2018 Orange
#
#     Licensed under the Apache License, Version 2.0 (the "License");
#     you may not use this file except in compliance with the License.
#     You may obtain a copy of the License at
#
#         http://www.apache.org/licenses/LICENSE-2.0
#
#     Unless required by applicable law or agreed to in writing, software
#     distributed under the License is distributed on an "AS IS" BASIS,
#     WITHOUT WARRANTIES OR CONDITIONS OF ANY KIND, either express or implied.
#     See the License for the specific language governing permissions and
#     limitations under the License.
#

@startuml

enum StatusValue {
   ok
   ko
}
enum ComponentsName {
   sdc connectivity
   so connectivity
   aai connectivity
   dmaap connectivity
}
enum ApplicationName {
   nbi
}

class ErrorDetail {
   code:int
   message:string
   description:string
   infoURL:string
}

class Error {
   code:int
   message:string
   description:string
   infoURL:string
}
   Error --> "0-*" ErrorDetail : details

class Component
   Component --> "1-1" ComponentsName : name
   Component --> "1-1" StatusValue : status

class Status {
   version:string
}
   Status --> "1-1" ApplicationName : name
   Status --> "1-1" StatusValue : status
   Status --> "0-*" Component : components

@enduml